<svg width="894" height="127" viewBox="0 0 894 127" fill="none" xmlns="http://www.w3.org/2000/svg">
<path d="M434.287 59.5L433.633 58.7434L434.287 59.5ZM893 0L883.152 6.02851L893.297 11.5432L893 0ZM0 174L0.841936 174.54C2.13863 172.516 3.44729 170.551 4.76772 168.642L3.94526 168.073L3.1228 167.504C1.78875 169.433 0.467114 171.418 -0.841936 173.46L0 174ZM12.2521 156.975L13.0285 157.605C16.0219 153.918 19.0698 150.485 22.1703 147.292L21.4528 146.595L20.7354 145.899C17.5922 149.136 14.5051 152.613 11.4758 156.344L12.2521 156.975ZM31.6075 137.12L32.2515 137.885C35.8602 134.847 39.5335 132.089 43.2688 129.59L42.7126 128.759L42.1565 127.928C38.3597 130.468 34.6278 133.27 30.9635 136.354L31.6075 137.12ZM54.6882 121.701L55.1455 122.591C59.2757 120.466 63.4752 118.61 67.7411 116.996L67.3871 116.06L67.0331 115.125C62.6988 116.766 58.4302 118.652 54.2309 120.812L54.6882 121.701ZM80.6257 111.843L80.8795 112.811C85.3166 111.646 89.8191 110.7 94.3843 109.945L94.2212 108.958L94.058 107.972C89.4362 108.736 84.8729 109.695 80.3718 110.876L80.6257 111.843ZM108.02 107.243L108.106 108.24C112.66 107.847 117.271 107.611 121.934 107.504L121.912 106.504L121.889 105.505C117.188 105.612 112.535 105.851 107.934 106.247L108.02 107.243ZM135.826 106.544L135.799 107.544C140.376 107.664 144.998 107.882 149.663 108.175L149.726 107.177L149.789 106.179C145.103 105.885 140.456 105.665 135.852 105.544L135.826 106.544ZM163.599 108.24L163.511 109.236C168.085 109.641 172.696 110.095 177.343 110.58L177.446 109.585L177.55 108.59C172.896 108.105 168.274 107.65 163.687 107.244L163.599 108.24ZM191.277 111.084L191.167 112.078C195.745 112.587 200.357 113.105 204.994 113.615L205.103 112.621L205.212 111.627C200.576 111.118 195.969 110.599 191.387 110.09L191.277 111.084ZM218.937 114.088L218.837 115.083C223.434 115.547 228.058 115.986 232.704 116.381L232.788 115.385L232.873 114.388C228.24 113.994 223.627 113.557 219.038 113.093L218.937 114.088ZM246.662 116.414L246.6 117.412C251.222 117.7 255.864 117.929 260.524 118.083L260.557 117.084L260.59 116.084C255.951 115.931 251.329 115.703 246.724 115.416L246.662 116.414ZM274.466 117.301L274.469 118.301C279.103 118.289 283.752 118.187 288.416 117.979L288.372 116.98L288.327 115.981C283.693 116.188 279.072 116.289 274.463 116.301L274.466 117.301ZM302.248 116.037L302.34 117.033C306.951 116.607 311.573 116.064 316.205 115.388L316.06 114.398L315.916 113.409C311.321 114.08 306.734 114.619 302.156 115.042L302.248 116.037ZM329.764 112L329.965 112.98C334.493 112.051 339.029 110.982 343.571 109.759L343.31 108.793L343.05 107.828C338.55 109.04 334.053 110.1 329.563 111.02L329.764 112ZM356.626 104.755L356.946 105.702C361.297 104.23 365.65 102.605 370.006 100.814L369.625 99.8889L369.245 98.964C364.93 100.739 360.616 102.349 356.305 103.807L356.626 104.755ZM382.287 94.2029L382.725 95.1017C386.841 93.0938 390.957 90.9274 395.071 88.5923L394.577 87.7226L394.084 86.8529C390.006 89.1675 385.927 91.3145 381.848 93.3042L382.287 94.2029ZM406.484 80.4788L407.029 81.3172C410.872 78.8187 414.713 76.1641 418.55 73.3449L417.958 72.539L417.366 71.7331C413.559 74.53 409.75 77.1629 405.939 79.6404L406.484 80.4788ZM428.867 64.0634L429.501 64.8367C431.316 63.349 433.129 61.8226 434.941 60.2566L434.287 59.5L433.633 58.7434C431.834 60.2982 430.034 61.8135 428.233 63.2902L428.867 64.0634ZM434.287 59.5L434.941 60.2566C436.803 58.648 438.659 57.079 440.511 55.5491L439.874 54.7781L439.238 54.0072C437.374 55.5467 435.506 57.1252 433.633 58.7434L434.287 59.5ZM450.966 46.0321L451.566 46.8317C455.461 43.9066 459.333 41.1509 463.185 38.5576L462.626 37.7281L462.068 36.8986C458.187 39.5116 454.286 42.2873 450.365 45.2326L450.966 46.0321ZM474.508 30.1932L475.02 31.0525C479.187 28.5721 483.329 26.2776 487.446 24.1597L486.989 23.2705L486.531 22.3813C482.377 24.5183 478.199 26.8328 473.997 29.3339L474.508 30.1932ZM499.858 17.177L500.255 18.0947C504.652 16.1917 509.019 14.4841 513.357 12.9605L513.026 12.017L512.695 11.0735C508.312 12.6129 503.9 14.3377 499.461 16.2593L499.858 17.177ZM526.552 7.821L526.812 8.78652C531.455 7.5348 536.064 6.48545 540.639 5.62377L540.454 4.64105L540.269 3.65832C535.643 4.52946 530.984 5.59026 526.292 6.85548L526.552 7.821ZM554.511 2.55377L554.619 3.54787C559.35 3.03144 564.044 2.70516 568.701 2.55212L568.669 1.55266L568.636 0.553199C563.929 0.707855 559.184 1.03762 554.402 1.55968L554.511 2.55377ZM582.861 1.60664L582.821 2.60585C587.557 2.79423 592.254 3.14913 596.913 3.65202L597.021 2.65779L597.128 1.66356C592.426 1.15606 587.683 0.797688 582.901 0.607429L582.861 1.60664ZM611.099 4.62632L610.93 5.61204C615.599 6.40979 620.228 7.34162 624.818 8.38793L625.04 7.41294L625.263 6.43795C620.639 5.38407 615.974 4.44494 611.267 3.64061L611.099 4.62632ZM638.82 10.9091L638.551 11.8724C643.116 13.1437 647.641 14.5119 652.127 15.9567L652.433 15.0048L652.74 14.053C648.232 12.6009 643.681 11.2249 639.088 9.94575L638.82 10.9091ZM665.891 19.5904L665.554 20.5318C670.027 22.134 674.459 23.7937 678.851 25.4899L679.211 24.557L679.571 23.6242C675.167 21.9231 670.719 20.2575 666.228 18.6489L665.891 19.5904ZM692.423 29.7967L692.048 30.7234C696.468 32.5158 700.846 34.3234 705.182 36.1234L705.565 35.1999L705.949 34.2763C701.611 32.4754 697.227 30.6654 692.799 28.87L692.423 29.7967ZM718.683 40.6517L718.3 41.5755C722.732 43.411 727.119 45.2128 731.46 46.9539L731.832 46.0258L732.204 45.0976C727.873 43.3605 723.494 41.562 719.066 39.7278L718.683 40.6517ZM745.079 51.1764L744.729 52.113C749.258 53.8071 753.736 55.402 758.164 56.8652L758.478 55.9157L758.792 54.9662C754.393 53.5126 749.939 51.9267 745.429 50.2398L745.079 51.1764ZM772.104 60.0095L771.846 60.9756C776.559 62.2339 781.214 63.2962 785.811 64.1202L785.987 63.1359L786.164 62.1516C781.63 61.3388 777.03 60.2894 772.362 59.0433L772.104 60.0095ZM800.098 64.8767L800.035 65.8748C804.882 66.1774 809.661 66.1484 814.373 65.7333L814.285 64.7371L814.198 63.741C809.596 64.1465 804.917 64.1757 800.16 63.8787L800.098 64.8767ZM828.24 62.2552L828.504 63.2195C833.062 61.9685 837.547 60.2797 841.959 58.1012L841.517 57.2045L841.074 56.3079C836.777 58.4293 832.411 60.0731 827.975 61.2909L828.24 62.2552ZM853.621 49.8066L854.214 50.612C857.891 47.9054 861.512 44.8022 865.076 41.2705L864.372 40.5602L863.668 39.8499C860.169 43.3171 856.623 46.356 853.028 49.0012L853.621 49.8066ZM873.87 29.9328L874.652 30.5566C877.469 27.0267 880.249 23.1937 882.993 19.0402L882.159 18.489L881.325 17.9378C878.611 22.0451 875.866 25.8293 873.088 29.309L873.87 29.9328Z" fill="#041152"/>
</svg>
