<svg width="148" height="16" viewBox="0 0 148 16" fill="none" xmlns="http://www.w3.org/2000/svg">
<path d="M8.2915 11.209C8.13381 11.209 8.00767 11.1933 7.91306 11.1617C7.40848 11.0356 7.04581 10.8464 6.82506 10.5941C6.63584 10.3103 6.50969 10.0895 6.44662 9.93181C6.22587 9.23802 6.30471 8.52845 6.68314 7.80311C7.06158 7.04624 7.55039 6.25783 8.14958 5.43789C8.3388 5.1856 8.51225 4.91754 8.66993 4.63371C8.85915 4.31835 9.01683 4.05029 9.14298 3.82954C9.17451 3.798 9.22182 3.73493 9.28489 3.64032C9.09567 3.70339 8.85915 3.798 8.57532 3.92415C8.32303 4.05029 8.02344 4.23951 7.67654 4.4918C7.10888 4.8387 6.50969 5.29598 5.87897 5.86363C5.24824 6.39975 4.60175 6.9674 3.93948 7.56659C3.7818 7.69274 3.60835 7.83465 3.41913 7.99233C3.26145 8.15001 3.10377 8.30769 2.94609 8.46538C2.66226 8.71767 2.33113 8.84381 1.9527 8.84381C1.54272 8.81228 1.21159 8.63883 0.959301 8.32346C0.675475 8.03964 0.549329 7.7085 0.580866 7.33007C0.612402 6.9201 0.770084 6.58896 1.05391 6.33667C1.21159 6.17899 1.38504 6.02131 1.57426 5.86363C1.73194 5.70595 1.88962 5.56403 2.0473 5.43789C3.05647 4.52334 4.04986 3.68762 5.02749 2.93075C6.00511 2.14234 6.96697 1.54315 7.91306 1.13318C8.85915 0.723209 9.7737 0.644368 10.6567 0.896659C11.1928 1.0228 11.5713 1.24356 11.792 1.55892C12.0443 1.84275 12.1862 2.09504 12.2178 2.31579C12.5016 3.00959 12.4385 3.7507 12.0285 4.5391C11.6186 5.29598 11.0982 6.13169 10.4675 7.04624C10.4044 7.10931 10.3256 7.21969 10.231 7.37737C10.1679 7.50352 10.0891 7.62966 9.99446 7.75581C10.4675 7.56659 11.0825 7.33007 11.8393 7.04624C12.5962 6.76241 13.5108 6.41552 14.583 6.00554C14.993 5.8794 15.3714 5.91093 15.7183 6.10015C16.0652 6.25783 16.3017 6.52589 16.4279 6.90433C16.5855 7.25123 16.5698 7.6139 16.3806 7.99233C16.2229 8.33923 15.9706 8.59152 15.6237 8.7492C14.6145 9.0961 13.7 9.41147 12.88 9.69529C12.0601 9.97912 11.3663 10.2314 10.7986 10.4522C10.4833 10.5783 10.1994 10.6887 9.94715 10.7833C9.7264 10.8464 9.52141 10.9094 9.33219 10.9725C9.11144 11.0356 8.92222 11.0987 8.76454 11.1617C8.60686 11.1933 8.44918 11.209 8.2915 11.209ZM18.8116 15.3245C18.5908 15.3245 18.3701 15.293 18.1493 15.2299C17.9286 15.1984 17.7078 15.1668 17.487 15.1353C16.9194 14.9776 16.5252 14.6465 16.3044 14.1419C16.0206 13.5112 16.0206 12.7543 16.3044 11.8713C16.6198 10.9567 17.1244 9.7899 17.8182 8.37077C17.9443 8.11848 18.0705 7.83465 18.1966 7.51929C18.3543 7.20392 18.4962 6.90433 18.6223 6.6205C18.2124 6.77818 17.7709 7.04624 17.2978 7.42468C16.8563 7.77158 16.399 8.13424 15.926 8.51268C15.6106 8.73343 15.2637 8.82804 14.8853 8.79651C14.4753 8.73343 14.1442 8.55998 13.8919 8.27616C13.6711 7.96079 13.5923 7.6139 13.6554 7.23546C13.6869 6.85702 13.8446 6.52589 14.1284 6.24207C14.5699 5.9267 15.0272 5.5798 15.5003 5.20137C16.0048 4.82293 16.5094 4.50757 17.014 4.25528C18.307 3.59301 19.4896 3.41956 20.5618 3.73493C21.0664 3.82954 21.4449 4.1449 21.6971 4.68102C21.9494 5.1856 21.9337 5.81632 21.6498 6.5732C21.3975 7.33007 20.956 8.355 20.3253 9.64799C20.1676 10.0264 19.9942 10.4049 19.805 10.7833C19.6473 11.1617 19.4896 11.5244 19.3319 11.8713C19.3004 11.9974 19.2531 12.1078 19.19 12.2024C19.1585 12.297 19.1269 12.3916 19.0954 12.4863C19.7577 12.3916 20.7195 12.0605 21.981 11.4929C23.274 10.8937 25.0085 9.72683 27.1845 7.99233C28.3513 7.07778 29.4078 6.19476 30.3539 5.34328C31.2999 4.46026 32.0568 3.73493 32.6245 3.16727C33.1921 2.59962 33.476 2.31579 33.476 2.31579C33.8544 1.87429 34.3117 1.73237 34.8478 1.89005C35.1001 1.92159 35.3051 2.03197 35.4627 2.22118C35.6204 2.37887 35.7466 2.53655 35.8412 2.69423C36.0619 3.13574 36.0777 3.65609 35.8885 4.25528C35.7308 4.82293 35.3839 5.75325 34.8478 7.04624C34.6586 7.45621 34.4694 7.86619 34.2801 8.27616C34.1225 8.68613 33.9648 9.06457 33.8071 9.41147C33.7756 9.53761 33.744 9.64799 33.7125 9.7426C33.7125 9.80567 33.6967 9.86874 33.6652 9.93181C34.2644 9.83721 34.8951 9.58492 35.5574 9.17494C36.2512 8.73343 36.9134 8.24462 37.5441 7.7085C38.2064 7.17239 38.7583 6.71511 39.1998 6.33667C39.5152 6.05285 39.8621 5.9267 40.2405 5.95824C40.6189 5.98977 40.9501 6.14746 41.2339 6.43128C41.4862 6.74665 41.5966 7.09355 41.565 7.47198C41.565 7.85042 41.4073 8.18155 41.092 8.46538C40.1144 9.31686 39.1052 10.121 38.0645 10.8779C37.0553 11.6348 36.0304 12.2024 34.9897 12.5809C33.9805 12.9278 32.9556 12.9751 31.9149 12.7228C31.4103 12.502 31.0477 12.1867 30.8269 11.7767C30.6377 11.3352 30.5746 10.8464 30.6377 10.3103C30.7323 9.77413 30.9215 9.11187 31.2053 8.32346C30.8584 8.63883 30.4958 8.93842 30.1173 9.22225C29.7704 9.50607 29.392 9.82144 28.982 10.1683C24.63 13.6058 21.2399 15.3245 18.8116 15.3245ZM56.8078 12.1551C56.587 12.1551 56.382 12.1236 56.1928 12.0605C55.5936 11.9344 55.1679 11.5717 54.9156 10.9725C54.7264 10.4364 54.7737 9.83721 55.0575 9.17494C55.3729 8.51268 55.7828 7.77158 56.2874 6.95163C56.4766 6.66781 56.6501 6.38398 56.8078 6.10015C56.997 5.78479 57.1547 5.50096 57.2808 5.24867C57.3439 5.15406 57.3912 5.07522 57.4227 5.01215C57.4543 4.91754 57.4858 4.8387 57.5173 4.77563C56.5713 4.61795 55.4675 4.58641 54.206 4.68102C52.9761 4.74409 51.5885 4.98061 50.0432 5.39058C48.6872 5.73748 47.2207 6.19476 45.6439 6.76241C44.0986 7.29853 42.4588 7.94503 40.7243 8.7019C40.3774 8.82804 40.0305 8.82804 39.6836 8.7019C39.3367 8.57575 39.0844 8.33923 38.9267 7.99233C38.7375 7.64543 38.7217 7.28276 38.8794 6.90433C39.0371 6.49436 39.2894 6.2263 39.6363 6.10015C41.4023 5.31174 43.0895 4.63371 44.6978 4.06606C46.3377 3.46687 47.883 2.99382 49.3337 2.64692C53.2126 1.6693 56.382 1.51162 58.8419 2.17388C59.5672 2.3631 60.0718 2.80461 60.3556 3.49841C60.6394 4.1922 60.5764 4.96484 60.1664 5.81632C59.7564 6.66781 59.2676 7.55082 58.7 8.46538C58.6684 8.52845 58.6211 8.60729 58.558 8.7019C58.495 8.79651 58.4319 8.90688 58.3688 9.03303C59.0942 8.87535 60.1664 8.55998 61.5855 8.08694C63.0047 7.6139 64.9599 6.9201 67.4513 6.00554C67.7982 5.8794 68.1451 5.91093 68.492 6.10015C68.8704 6.25783 69.1227 6.52589 69.2489 6.90433C69.4065 7.25123 69.4065 7.6139 69.2489 7.99233C69.0912 8.33923 68.8073 8.59152 68.3974 8.7492C66.9467 9.25378 65.6222 9.71106 64.4238 10.121C63.2254 10.531 62.1532 10.8779 61.2071 11.1617C59.9456 11.5402 58.9838 11.8082 58.3215 11.9659C57.6593 12.0921 57.1547 12.1551 56.8078 12.1551ZM74.3515 11.209C74.1938 11.209 74.0676 11.1933 73.973 11.1617C73.4684 11.0356 73.1058 10.8464 72.885 10.5941C72.6958 10.3103 72.5697 10.0895 72.5066 9.93181C72.2858 9.23802 72.3647 8.52845 72.7431 7.80311C73.1215 7.04624 73.6104 6.25783 74.2095 5.43789C74.3988 5.1856 74.5722 4.91754 74.7299 4.63371C74.9191 4.31835 75.0768 4.05029 75.2029 3.82954C75.2345 3.798 75.2818 3.73493 75.3448 3.64032C75.1556 3.70339 74.9191 3.798 74.6353 3.92415C74.383 4.05029 74.0834 4.23951 73.7365 4.4918C73.1688 4.8387 72.5697 5.29598 71.9389 5.86363C71.3082 6.39975 70.6617 6.9674 69.9994 7.56659C69.8418 7.69274 69.6683 7.83465 69.4791 7.99233C69.3214 8.15001 69.1637 8.30769 69.006 8.46538C68.7222 8.71767 68.3911 8.84381 68.0127 8.84381C67.6027 8.81228 67.2716 8.63883 67.0193 8.32346C66.7354 8.03964 66.6093 7.7085 66.6408 7.33007C66.6724 6.9201 66.83 6.58896 67.1139 6.33667C67.2716 6.17899 67.445 6.02131 67.6342 5.86363C67.7919 5.70595 67.9496 5.56403 68.1073 5.43789C69.1164 4.52334 70.1098 3.68762 71.0874 2.93075C72.0651 2.14234 73.0269 1.54315 73.973 1.13318C74.9191 0.723209 75.8337 0.644368 76.7167 0.896659C77.2528 1.0228 77.6312 1.24356 77.852 1.55892C78.1043 1.84275 78.2462 2.09504 78.2777 2.31579C78.5616 3.00959 78.4985 3.7507 78.0885 4.5391C77.6785 5.29598 77.1582 6.13169 76.5275 7.04624C76.4644 7.10931 76.3855 7.21969 76.2909 7.37737C76.2279 7.50352 76.149 7.62966 76.0544 7.75581C76.5275 7.56659 77.1424 7.33007 77.8993 7.04624C78.6562 6.76241 79.5707 6.41552 80.643 6.00554C81.0529 5.8794 81.4314 5.91093 81.7783 6.10015C82.1252 6.25783 82.3617 6.52589 82.4878 6.90433C82.6455 7.25123 82.6297 7.6139 82.4405 7.99233C82.2828 8.33923 82.0305 8.59152 81.6836 8.7492C80.6745 9.0961 79.7599 9.41147 78.94 9.69529C78.12 9.97912 77.4262 10.2314 76.8586 10.4522C76.5432 10.5783 76.2594 10.6887 76.0071 10.7833C75.7864 10.8464 75.5814 10.9094 75.3922 10.9725C75.1714 11.0356 74.9822 11.0987 74.8245 11.1617C74.6668 11.1933 74.5091 11.209 74.3515 11.209ZM87.3787 11.209C87.221 11.209 87.0948 11.1933 87.0002 11.1617C86.4957 11.0356 86.133 10.8464 85.9122 10.5941C85.723 10.3103 85.5969 10.0895 85.5338 9.93181C85.313 9.23802 85.3919 8.52845 85.7703 7.80311C86.1488 7.04624 86.6376 6.25783 87.2368 5.43789C87.426 5.1856 87.5994 4.91754 87.7571 4.63371C87.9463 4.31835 88.104 4.05029 88.2301 3.82954C88.2617 3.798 88.309 3.73493 88.3721 3.64032C88.1828 3.70339 87.9463 3.798 87.6625 3.92415C87.4102 4.05029 87.1106 4.23951 86.7637 4.4918C86.1961 4.8387 85.5969 5.29598 84.9661 5.86363C84.3354 6.39975 83.6889 6.9674 83.0267 7.56659C82.869 7.69274 82.6955 7.83465 82.5063 7.99233C82.3486 8.15001 82.1909 8.30769 82.0333 8.46538C81.7494 8.71767 81.4183 8.84381 81.0399 8.84381C80.6299 8.81228 80.2988 8.63883 80.0465 8.32346C79.7626 8.03964 79.6365 7.7085 79.668 7.33007C79.6996 6.9201 79.8573 6.58896 80.1411 6.33667C80.2988 6.17899 80.4722 6.02131 80.6614 5.86363C80.8191 5.70595 80.9768 5.56403 81.1345 5.43789C82.1436 4.52334 83.137 3.68762 84.1147 2.93075C85.0923 2.14234 86.0541 1.54315 87.0002 1.13318C87.9463 0.723209 88.8609 0.644368 89.7439 0.896659C90.28 1.0228 90.6584 1.24356 90.8792 1.55892C91.1315 1.84275 91.2734 2.09504 91.3049 2.31579C91.5888 3.00959 91.5257 3.7507 91.1157 4.5391C90.7058 5.29598 90.1854 6.13169 89.5547 7.04624C89.4916 7.10931 89.4128 7.21969 89.3182 7.37737C89.2551 7.50352 89.1762 7.62966 89.0816 7.75581C89.5547 7.56659 90.1696 7.33007 90.9265 7.04624C91.6834 6.76241 92.5979 6.41552 93.6702 6.00554C94.0801 5.8794 94.4586 5.91093 94.8055 6.10015C95.1524 6.25783 95.3889 6.52589 95.515 6.90433C95.6727 7.25123 95.657 7.6139 95.4677 7.99233C95.3101 8.33923 95.0578 8.59152 94.7109 8.7492C93.7017 9.0961 92.7871 9.41147 91.9672 9.69529C91.1473 9.97912 90.4535 10.2314 89.8858 10.4522C89.5704 10.5783 89.2866 10.6887 89.0343 10.7833C88.8136 10.8464 88.6086 10.9094 88.4194 10.9725C88.1986 11.0356 88.0094 11.0987 87.8517 11.1617C87.694 11.1933 87.5364 11.209 87.3787 11.209ZM100.406 11.209C100.248 11.209 100.122 11.1933 100.027 11.1617C99.5229 11.0356 99.1602 10.8464 98.9394 10.5941C98.7502 10.3103 98.6241 10.0895 98.561 9.93181C98.3402 9.23802 98.4191 8.52845 98.7975 7.80311C99.176 7.04624 99.6648 6.25783 100.264 5.43789C100.453 5.1856 100.627 4.91754 100.784 4.63371C100.974 4.31835 101.131 4.05029 101.257 3.82954C101.289 3.798 101.336 3.73493 101.399 3.64032C101.21 3.70339 100.974 3.798 100.69 3.92415C100.437 4.05029 100.138 4.23951 99.7909 4.4918C99.2233 4.8387 98.6241 5.29598 97.9933 5.86363C97.3626 6.39975 96.7161 6.9674 96.0539 7.56659C95.8962 7.69274 95.7227 7.83465 95.5335 7.99233C95.3758 8.15001 95.2182 8.30769 95.0605 8.46538C94.7766 8.71767 94.4455 8.84381 94.0671 8.84381C93.6571 8.81228 93.326 8.63883 93.0737 8.32346C92.7899 8.03964 92.6637 7.7085 92.6952 7.33007C92.7268 6.9201 92.8845 6.58896 93.1683 6.33667C93.326 6.17899 93.4994 6.02131 93.6886 5.86363C93.8463 5.70595 94.004 5.56403 94.1617 5.43789C95.1708 4.52334 96.1642 3.68762 97.1419 2.93075C98.1195 2.14234 99.0814 1.54315 100.027 1.13318C100.974 0.723209 101.888 0.644368 102.771 0.896659C103.307 1.0228 103.686 1.24356 103.906 1.55892C104.159 1.84275 104.301 2.09504 104.332 2.31579C104.616 3.00959 104.553 3.7507 104.143 4.5391C103.733 5.29598 103.213 6.13169 102.582 7.04624C102.519 7.10931 102.44 7.21969 102.345 7.37737C102.282 7.50352 102.203 7.62966 102.109 7.75581C102.582 7.56659 103.197 7.33007 103.954 7.04624C104.711 6.76241 105.625 6.41552 106.697 6.00554C107.107 5.8794 107.486 5.91093 107.833 6.10015C108.18 6.25783 108.416 6.52589 108.542 6.90433C108.7 7.25123 108.684 7.6139 108.495 7.99233C108.337 8.33923 108.085 8.59152 107.738 8.7492C106.729 9.0961 105.814 9.41147 104.994 9.69529C104.174 9.97912 103.481 10.2314 102.913 10.4522C102.598 10.5783 102.314 10.6887 102.062 10.7833C101.841 10.8464 101.636 10.9094 101.447 10.9725C101.226 11.0356 101.037 11.0987 100.879 11.1617C100.721 11.1933 100.564 11.209 100.406 11.209ZM113.433 11.209C113.275 11.209 113.149 11.1933 113.055 11.1617C112.55 11.0356 112.187 10.8464 111.967 10.5941C111.777 10.3103 111.651 10.0895 111.588 9.93181C111.367 9.23802 111.446 8.52845 111.825 7.80311C112.203 7.04624 112.692 6.25783 113.291 5.43789C113.48 5.1856 113.654 4.91754 113.812 4.63371C114.001 4.31835 114.158 4.05029 114.285 3.82954C114.316 3.798 114.363 3.73493 114.426 3.64032C114.237 3.70339 114.001 3.798 113.717 3.92415C113.465 4.05029 113.165 4.23951 112.818 4.4918C112.25 4.8387 111.651 5.29598 111.021 5.86363C110.39 6.39975 109.743 6.9674 109.081 7.56659C108.923 7.69274 108.75 7.83465 108.561 7.99233C108.403 8.15001 108.245 8.30769 108.088 8.46538C107.804 8.71767 107.473 8.84381 107.094 8.84381C106.684 8.81228 106.353 8.63883 106.101 8.32346C105.817 8.03964 105.691 7.7085 105.722 7.33007C105.754 6.9201 105.912 6.58896 106.195 6.33667C106.353 6.17899 106.527 6.02131 106.716 5.86363C106.874 5.70595 107.031 5.56403 107.189 5.43789C108.198 4.52334 109.191 3.68762 110.169 2.93075C111.147 2.14234 112.109 1.54315 113.055 1.13318C114.001 0.723209 114.915 0.644368 115.798 0.896659C116.334 1.0228 116.713 1.24356 116.934 1.55892C117.186 1.84275 117.328 2.09504 117.359 2.31579C117.643 3.00959 117.58 3.7507 117.17 4.5391C116.76 5.29598 116.24 6.13169 115.609 7.04624C115.546 7.10931 115.467 7.21969 115.373 7.37737C115.309 7.50352 115.231 7.62966 115.136 7.75581C115.609 7.56659 116.224 7.33007 116.981 7.04624C117.738 6.76241 118.652 6.41552 119.725 6.00554C120.135 5.8794 120.513 5.91093 120.86 6.10015C121.207 6.25783 121.443 6.52589 121.569 6.90433C121.727 7.25123 121.711 7.6139 121.522 7.99233C121.364 8.33923 121.112 8.59152 120.765 8.7492C119.756 9.0961 118.842 9.41147 118.022 9.69529C117.202 9.97912 116.508 10.2314 115.94 10.4522C115.625 10.5783 115.341 10.6887 115.089 10.7833C114.868 10.8464 114.663 10.9094 114.474 10.9725C114.253 11.0356 114.064 11.0987 113.906 11.1617C113.748 11.1933 113.591 11.209 113.433 11.209ZM126.46 11.209C126.303 11.209 126.176 11.1933 126.082 11.1617C125.577 11.0356 125.215 10.8464 124.994 10.5941C124.805 10.3103 124.678 10.0895 124.615 9.93181C124.395 9.23802 124.474 8.52845 124.852 7.80311C125.23 7.04624 125.719 6.25783 126.318 5.43789C126.508 5.1856 126.681 4.91754 126.839 4.63371C127.028 4.31835 127.186 4.05029 127.312 3.82954C127.343 3.798 127.391 3.73493 127.454 3.64032C127.264 3.70339 127.028 3.798 126.744 3.92415C126.492 4.05029 126.192 4.23951 125.845 4.4918C125.278 4.8387 124.678 5.29598 124.048 5.86363C123.417 6.39975 122.771 6.9674 122.108 7.56659C121.951 7.69274 121.777 7.83465 121.588 7.99233C121.43 8.15001 121.273 8.30769 121.115 8.46538C120.831 8.71767 120.5 8.84381 120.121 8.84381C119.712 8.81228 119.38 8.63883 119.128 8.32346C118.844 8.03964 118.718 7.7085 118.75 7.33007C118.781 6.9201 118.939 6.58896 119.223 6.33667C119.38 6.17899 119.554 6.02131 119.743 5.86363C119.901 5.70595 120.058 5.56403 120.216 5.43789C121.225 4.52334 122.219 3.68762 123.196 2.93075C124.174 2.14234 125.136 1.54315 126.082 1.13318C127.028 0.723209 127.943 0.644368 128.826 0.896659C129.362 1.0228 129.74 1.24356 129.961 1.55892C130.213 1.84275 130.355 2.09504 130.387 2.31579C130.67 3.00959 130.607 3.7507 130.197 4.5391C129.787 5.29598 129.267 6.13169 128.636 7.04624C128.573 7.10931 128.494 7.21969 128.4 7.37737C128.337 7.50352 128.258 7.62966 128.163 7.75581C128.636 7.56659 129.251 7.33007 130.008 7.04624C130.765 6.76241 131.68 6.41552 132.752 6.00554C133.162 5.8794 133.54 5.91093 133.887 6.10015C134.234 6.25783 134.471 6.52589 134.597 6.90433C134.754 7.25123 134.739 7.6139 134.549 7.99233C134.392 8.33923 134.139 8.59152 133.792 8.7492C132.783 9.0961 131.869 9.41147 131.049 9.69529C130.229 9.97912 129.535 10.2314 128.967 10.4522C128.652 10.5783 128.368 10.6887 128.116 10.7833C127.895 10.8464 127.69 10.9094 127.501 10.9725C127.28 11.0356 127.091 11.0987 126.933 11.1617C126.776 11.1933 126.618 11.209 126.46 11.209ZM139.488 11.209C139.33 11.209 139.204 11.1933 139.109 11.1617C138.604 11.0356 138.242 10.8464 138.021 10.5941C137.832 10.3103 137.706 10.0895 137.643 9.93181C137.422 9.23802 137.501 8.52845 137.879 7.80311C138.258 7.04624 138.746 6.25783 139.346 5.43789C139.535 5.1856 139.708 4.91754 139.866 4.63371C140.055 4.31835 140.213 4.05029 140.339 3.82954C140.371 3.798 140.418 3.73493 140.481 3.64032C140.292 3.70339 140.055 3.798 139.771 3.92415C139.519 4.05029 139.219 4.23951 138.873 4.4918C138.305 4.8387 137.706 5.29598 137.075 5.86363C136.444 6.39975 135.798 6.9674 135.135 7.56659C134.978 7.69274 134.804 7.83465 134.615 7.99233C134.457 8.15001 134.3 8.30769 134.142 8.46538C133.858 8.71767 133.527 8.84381 133.149 8.84381C132.739 8.81228 132.408 8.63883 132.155 8.32346C131.871 8.03964 131.745 7.7085 131.777 7.33007C131.808 6.9201 131.966 6.58896 132.25 6.33667C132.408 6.17899 132.581 6.02131 132.77 5.86363C132.928 5.70595 133.086 5.56403 133.243 5.43789C134.252 4.52334 135.246 3.68762 136.224 2.93075C137.201 2.14234 138.163 1.54315 139.109 1.13318C140.055 0.723209 140.97 0.644368 141.853 0.896659C142.389 1.0228 142.767 1.24356 142.988 1.55892C143.24 1.84275 143.382 2.09504 143.414 2.31579C143.698 3.00959 143.635 3.7507 143.225 4.5391C142.815 5.29598 142.294 6.13169 141.664 7.04624C141.6 7.10931 141.522 7.21969 141.427 7.37737C141.364 7.50352 141.285 7.62966 141.19 7.75581C141.664 7.56659 142.278 7.33007 143.035 7.04624C143.792 6.76241 144.707 6.41552 145.779 6.00554C146.189 5.8794 146.567 5.91093 146.914 6.10015C147.261 6.25783 147.498 6.52589 147.624 6.90433C147.782 7.25123 147.766 7.6139 147.577 7.99233C147.419 8.33923 147.167 8.59152 146.82 8.7492C145.811 9.0961 144.896 9.41147 144.076 9.69529C143.256 9.97912 142.562 10.2314 141.995 10.4522C141.679 10.5783 141.395 10.6887 141.143 10.7833C140.922 10.8464 140.717 10.9094 140.528 10.9725C140.307 11.0356 140.118 11.0987 139.961 11.1617C139.803 11.1933 139.645 11.209 139.488 11.209Z" fill="#0BAB7C"/>
</svg>
