<svg width="916" height="175" viewBox="0 0 916 175" fill="none" xmlns="http://www.w3.org/2000/svg">
<path d="M445.5 59.5L444.855 58.7359L445.5 59.5ZM915 0L905.097 5.93774L915.191 11.5454L915 0ZM1 174L1.83616 174.548C3.17958 172.5 4.53555 170.512 5.90386 168.58L5.08792 168.002L4.27198 167.424C2.88952 169.375 1.52008 171.384 0.163836 173.452L1 174ZM13.7017 156.781L14.4699 157.421C17.5706 153.701 20.7285 150.241 23.9414 147.025L23.2339 146.318L22.5265 145.611C19.2697 148.871 16.0714 152.376 12.9335 156.14L13.7017 156.781ZM33.7356 136.804L34.3679 137.579C38.0909 134.54 41.8809 131.785 45.7352 129.289L45.1917 128.45L44.6483 127.61C40.732 130.146 36.8827 132.945 33.1033 136.029L33.7356 136.804ZM57.5111 121.433L57.9558 122.329C62.1945 120.224 66.5043 118.388 70.8823 116.791L70.5397 115.852L70.1972 114.912C65.7519 116.533 61.3738 118.399 57.0665 120.537L57.5111 121.433ZM84.0918 111.699L84.3363 112.668C88.8729 111.524 93.4762 110.597 98.143 109.858L97.9867 108.87L97.8304 107.883C93.1087 108.63 88.4464 109.569 83.8473 110.729L84.0918 111.699ZM112.075 107.201L112.157 108.197C116.805 107.818 121.511 107.592 126.271 107.494L126.25 106.494L126.23 105.494C121.434 105.593 116.687 105.821 111.994 106.204L112.075 107.201ZM140.445 106.555L140.418 107.555C145.088 107.68 149.803 107.902 154.563 108.199L154.626 107.201L154.688 106.203C149.908 105.905 145.168 105.682 140.472 105.555L140.445 106.555ZM168.779 108.269L168.692 109.265C173.36 109.671 178.065 110.125 182.806 110.609L182.907 109.614L183.009 108.62C178.261 108.135 173.546 107.679 168.866 107.272L168.779 108.269ZM197.02 111.111L196.912 112.105C201.584 112.612 206.289 113.129 211.022 113.637L211.128 112.642L211.235 111.648C206.504 111.141 201.803 110.624 197.128 110.117L197.02 111.111ZM225.244 114.103L225.146 115.099C229.837 115.561 234.554 115.997 239.295 116.391L239.377 115.394L239.46 114.397C234.732 114.005 230.026 113.57 225.342 113.108L225.244 114.103ZM253.532 116.419L253.472 117.417C258.187 117.703 262.922 117.931 267.676 118.084L267.708 117.084L267.741 116.085C263.008 115.933 258.291 115.706 253.593 115.42L253.532 116.419ZM281.898 117.301L281.9 118.301C286.627 118.289 291.37 118.188 296.127 117.982L296.084 116.983L296.041 115.984C291.313 116.189 286.597 116.289 281.895 116.301L281.898 117.301ZM310.242 116.048L310.332 117.044C315.036 116.621 319.753 116.081 324.479 115.41L324.338 114.42L324.198 113.43C319.507 114.096 314.825 114.632 310.153 115.052L310.242 116.048ZM338.33 112.038L338.526 113.018C343.151 112.095 347.785 111.033 352.423 109.817L352.17 108.85L351.916 107.882C347.317 109.088 342.723 110.142 338.134 111.057L338.33 112.038ZM365.779 104.832L366.092 105.781C370.544 104.315 375 102.696 379.457 100.911L379.085 99.9823L378.713 99.0539C374.295 100.823 369.879 102.428 365.466 103.882L365.779 104.832ZM392.059 94.3064L392.489 95.2096C396.71 93.2028 400.932 91.0369 405.153 88.7016L404.668 87.8266L404.184 86.9517C400 89.267 395.815 91.4141 391.63 93.4033L392.059 94.3064ZM416.897 80.5715L417.432 81.416C421.381 78.9116 425.328 76.2499 429.271 73.4224L428.688 72.6097L428.106 71.7971C424.193 74.6027 420.278 77.2431 416.361 79.727L416.897 80.5715ZM439.921 64.0889L440.546 64.8694C442.413 63.3737 444.28 61.8389 446.145 60.2641L445.5 59.5L444.855 58.7359C443.003 60.2997 441.15 61.8236 439.296 63.3083L439.921 64.0889ZM445.5 59.5L446.145 60.2641C447.959 58.7327 449.768 57.2373 451.573 55.7773L450.944 54.9998L450.315 54.2223C448.499 55.6913 446.679 57.1956 444.855 58.7359L445.5 59.5ZM461.756 46.6324L462.35 47.4365C466.117 44.6524 469.864 42.0198 473.592 39.5327L473.037 38.7008L472.482 37.869C468.727 40.3742 464.954 43.0254 461.161 45.8282L461.756 46.6324ZM484.479 31.4806L484.99 32.3399C489.04 29.9296 493.067 27.6874 497.07 25.6058L496.609 24.7185L496.148 23.8313C492.11 25.9309 488.05 28.1917 483.967 30.6212L484.479 31.4806ZM508.93 18.7752L509.336 19.6888C513.552 17.8129 517.741 16.1099 521.904 14.5706L521.557 13.6327L521.211 12.6947C517.007 14.2491 512.778 15.9683 508.523 17.8616L508.93 18.7752ZM534.66 9.2895L534.942 10.249C539.376 8.94742 543.781 7.82481 548.156 6.86943L547.942 5.89245L547.729 4.91548C543.309 5.88086 538.858 7.0151 534.379 8.32998L534.66 9.2895ZM561.397 3.45254L561.54 4.44223C566.094 3.78309 570.616 3.29683 575.105 2.96969L575.032 1.97233L574.959 0.974977C570.424 1.30549 565.856 1.7968 561.254 2.46285L561.397 3.45254ZM588.766 1.45059L588.769 2.45058C593.353 2.4338 597.902 2.57284 602.417 2.85245L602.479 1.85437L602.541 0.856279C597.984 0.574068 593.391 0.433648 588.762 0.450597L588.766 1.45059ZM616.134 3.12387L616.011 4.11635C620.548 4.67586 625.049 5.36568 629.515 6.16962L629.692 5.18544L629.869 4.20126C625.369 3.39115 620.831 2.69568 616.256 2.13139L616.134 3.12387ZM643.132 7.95638L642.906 8.93062C647.364 9.96256 651.786 11.0951 656.172 12.3113L656.439 11.3477L656.706 10.384C652.295 9.16078 647.845 8.02106 643.357 6.98214L643.132 7.95638ZM669.599 15.2646L669.296 16.2179C673.664 17.6025 677.995 19.0553 682.29 20.5588L682.62 19.615L682.951 18.6712C678.64 17.1619 674.29 15.7026 669.901 14.3114L669.599 15.2646ZM695.519 24.3067L695.167 25.2426C699.466 26.8597 703.727 28.5108 707.95 30.1774L708.317 29.2472L708.684 28.317C704.453 26.6474 700.182 24.9924 695.871 23.3707L695.519 24.3067ZM721.048 34.3449L720.672 35.2718C724.958 37.0067 729.199 38.7358 733.405 40.4424L733.781 39.5158L734.157 38.5892C729.956 36.8847 725.709 35.1528 721.423 33.4179L721.048 34.3449ZM746.531 44.6417L746.162 45.5713C750.482 47.2838 754.759 48.9466 758.992 50.5355L759.344 49.5993L759.695 48.663C755.476 47.0796 751.211 45.4215 746.899 43.712L746.531 44.6417ZM772.269 54.2412L771.947 55.1878C776.373 56.695 780.751 58.0901 785.08 59.3438L785.358 58.3832L785.637 57.4227C781.342 56.179 776.994 54.7935 772.592 53.2946L772.269 54.2412ZM798.651 61.7876L798.437 62.7644C803.025 63.7705 807.557 64.5745 812.034 65.1384L812.159 64.1462L812.284 63.1541C807.875 62.5987 803.402 61.8057 798.866 60.8108L798.651 61.7876ZM825.828 65.0756L825.822 66.0756C830.491 66.1004 835.097 65.8046 839.639 65.1413L839.495 64.1518L839.35 63.1623C834.915 63.8099 830.41 64.0999 825.833 64.0756L825.828 65.0756ZM852.833 61.0283L853.145 61.9783C857.451 60.5636 861.692 58.7552 865.868 56.5112L865.394 55.6303L864.921 54.7495C860.849 56.9379 856.716 58.7001 852.521 60.0782L852.833 61.0283ZM876.869 48.1938L877.476 48.988C880.987 46.3019 884.446 43.2609 887.854 39.8388L887.146 39.1331L886.437 38.4274C883.088 41.7898 879.696 44.7711 876.261 47.3996L876.869 48.1938ZM896.298 28.8473L897.079 29.4723C899.834 26.0313 902.554 22.3104 905.24 18.2945L904.409 17.7386L903.577 17.1826C900.921 21.1545 898.234 24.8289 895.517 28.2223L896.298 28.8473Z" fill="#0BAB7C" fill-opacity="0.8"/>
</svg>
