<svg width="26" height="26" viewBox="0 0 26 26" fill="none" xmlns="http://www.w3.org/2000/svg">
<path d="M24 0.25H2C1.53587 0.25 1.09075 0.434375 0.762563 0.762563C0.434375 1.09075 0.25 1.53587 0.25 2V24C0.25 24.4641 0.434375 24.9092 0.762563 25.2374C1.09075 25.5656 1.53587 25.75 2 25.75H24C24.4641 25.75 24.9092 25.5656 25.2374 25.2374C25.5656 24.9092 25.75 24.4641 25.75 24V2C25.75 1.53587 25.5656 1.09075 25.2374 0.762563C24.9092 0.434375 24.4641 0.25 24 0.25ZM24.25 24C24.25 24.0663 24.2237 24.1299 24.1768 24.1768C24.1299 24.2237 24.0663 24.25 24 24.25H2C1.9337 24.25 1.87011 24.2237 1.82322 24.1768C1.77634 24.1299 1.75 24.0663 1.75 24V2C1.75 1.9337 1.77634 1.87011 1.82322 1.82322C1.87011 1.77634 1.9337 1.75 2 1.75H24C24.0663 1.75 24.1299 1.77634 24.1768 1.82322C24.2237 1.87011 24.25 1.9337 24.25 2V24ZM8.75 11V19C8.75 19.1989 8.67098 19.3897 8.53033 19.5303C8.38968 19.671 8.19891 19.75 8 19.75C7.80109 19.75 7.61032 19.671 7.46967 19.5303C7.32902 19.3897 7.25 19.1989 7.25 19V11C7.25 10.8011 7.32902 10.6103 7.46967 10.4697C7.61032 10.329 7.80109 10.25 8 10.25C8.19891 10.25 8.38968 10.329 8.53033 10.4697C8.67098 10.6103 8.75 10.8011 8.75 11ZM19.75 14.5V19C19.75 19.1989 19.671 19.3897 19.5303 19.5303C19.3897 19.671 19.1989 19.75 19 19.75C18.8011 19.75 18.6103 19.671 18.4697 19.5303C18.329 19.3897 18.25 19.1989 18.25 19V14.5C18.25 13.7707 17.9603 13.0712 17.4445 12.5555C16.9288 12.0397 16.2293 11.75 15.5 11.75C14.7707 11.75 14.0712 12.0397 13.5555 12.5555C13.0397 13.0712 12.75 13.7707 12.75 14.5V19C12.75 19.1989 12.671 19.3897 12.5303 19.5303C12.3897 19.671 12.1989 19.75 12 19.75C11.8011 19.75 11.6103 19.671 11.4697 19.5303C11.329 19.3897 11.25 19.1989 11.25 19V11C11.25 10.8011 11.329 10.6103 11.4697 10.4697C11.6103 10.329 11.8011 10.25 12 10.25C12.1989 10.25 12.3897 10.329 12.5303 10.4697C12.671 10.6103 12.75 10.8011 12.75 11V11.2638C13.3681 10.7392 14.1233 10.4024 14.9266 10.293C15.7299 10.1836 16.5476 10.3062 17.2835 10.6464C18.0193 10.9866 18.6425 11.5302 19.0796 12.213C19.5166 12.8958 19.7492 13.6893 19.75 14.5ZM9.25 7.5C9.25 7.74723 9.17669 7.9889 9.03934 8.19446C8.90199 8.40002 8.70676 8.56024 8.47835 8.65485C8.24995 8.74946 7.99861 8.77421 7.75614 8.72598C7.51366 8.67775 7.29093 8.5587 7.11612 8.38388C6.9413 8.20907 6.82225 7.98634 6.77402 7.74386C6.72579 7.50139 6.75054 7.25005 6.84515 7.02165C6.93976 6.79324 7.09998 6.59801 7.30554 6.46066C7.5111 6.32331 7.75277 6.25 8 6.25C8.33152 6.25 8.64946 6.3817 8.88388 6.61612C9.1183 6.85054 9.25 7.16848 9.25 7.5Z" fill="white"/>
</svg>
