<svg width="22" height="24" viewBox="0 0 22 24" fill="none" xmlns="http://www.w3.org/2000/svg">
<path d="M21.6097 22.6218L13.6822 10.1643L21.5322 1.52431C21.6085 1.45347 21.6692 1.36751 21.7105 1.27191C21.7518 1.17631 21.7727 1.07317 21.7719 0.969037C21.7712 0.864909 21.7487 0.762083 21.706 0.667107C21.6633 0.572131 21.6013 0.487087 21.524 0.417388C21.4466 0.34769 21.3556 0.294866 21.2567 0.262279C21.1578 0.229693 21.0532 0.218058 20.9495 0.228116C20.8459 0.238174 20.7455 0.269705 20.6547 0.3207C20.5639 0.371694 20.4847 0.441037 20.4222 0.52431L12.8522 8.85181L7.61469 0.62181C7.54654 0.514653 7.4523 0.426555 7.3408 0.365775C7.22929 0.304995 7.10418 0.273523 6.97719 0.27431H0.977194C0.842843 0.274372 0.710975 0.310522 0.595374 0.37898C0.479774 0.447439 0.384684 0.545694 0.320046 0.663473C0.255408 0.781253 0.223594 0.914233 0.22793 1.04851C0.232266 1.18279 0.272592 1.31345 0.344693 1.42681L8.27219 13.8843L0.422194 22.5243C0.30972 22.6741 0.257381 22.8606 0.275476 23.0471C0.29357 23.2335 0.380788 23.4064 0.519968 23.5318C0.659148 23.6572 0.840214 23.726 1.02754 23.7246C1.21487 23.7232 1.39489 23.6518 1.53219 23.5243L9.10219 15.1968L14.3397 23.4268C14.4078 23.534 14.5021 23.6221 14.6136 23.6828C14.7251 23.7436 14.8502 23.7751 14.9772 23.7743H20.9772C21.1115 23.7742 21.2434 23.7381 21.359 23.6696C21.4746 23.6012 21.5697 23.5029 21.6343 23.3851C21.699 23.2674 21.7308 23.1344 21.7265 23.0001C21.7221 22.8658 21.6818 22.7352 21.6097 22.6218ZM15.3884 22.2743L2.34344 1.77431H6.56594L19.6109 22.2743H15.3884Z" fill="white"/>
</svg>
