<svg width="23" height="23" viewBox="0 0 23 23" fill="none" xmlns="http://www.w3.org/2000/svg">
<path d="M10.5349 1.55414C10.8021 0.570193 12.1979 0.570193 12.4651 1.55414L14.2327 8.06424C14.3257 8.40672 14.5933 8.67426 14.9358 8.76725L21.4459 10.5349C22.4298 10.8021 22.4298 12.1979 21.4459 12.4651L14.9358 14.2327C14.5933 14.3257 14.3257 14.5933 14.2327 14.9358L12.4651 21.4459C12.1979 22.4298 10.8021 22.4298 10.5349 21.4459L8.76725 14.9358C8.67426 14.5933 8.40672 14.3257 8.06424 14.2327L1.55414 12.4651C0.570193 12.1979 0.570192 10.8021 1.55414 10.5349L8.06424 8.76725C8.40672 8.67426 8.67426 8.40672 8.76725 8.06424L10.5349 1.55414Z" fill="#B4A0F8"/>
</svg>
